<svg version="1.1" id="Layer_1" xmlns="http://www.w3.org/2000/svg" xmlns:xlink="http://www.w3.org/1999/xlink" x="0px" y="0px"
	 width="100%" viewBox="0 0 496 496" enable-background="new 0 0 496 496" xml:space="preserve">
<path fill="#000000" opacity="1.000000" stroke="none" 
	d="
M229.531342,1.000000 
	C226.032776,3.762860 221.299850,2.559847 216.997513,3.160719 
	C184.887436,7.645270 154.887497,17.975132 126.747887,34.015408 
	C105.979767,45.853748 87.179260,60.247334 70.715042,77.501648 
	C50.154755,99.048599 33.874783,123.497864 21.858692,150.878403 
	C12.994242,171.077454 7.196979,192.044098 3.545786,213.688385 
	C2.669808,218.881180 2.209201,224.144043 1.278781,229.687347 
	C1.000000,153.739624 1.000000,77.479248 1.000000,1.000000 
	C77.020752,1.000000 153.041718,1.000000 229.531342,1.000000 
z"/>
<path fill="#000000" opacity="1.000000" stroke="none" 
	d="
M1.000000,272.468658 
	C3.854692,275.770111 2.515519,280.366669 3.074606,284.486053 
	C8.397319,323.704224 22.436539,359.427826 44.634686,392.106537 
	C54.564468,406.724487 65.795181,420.262238 78.674606,432.258148 
	C113.421013,464.620941 153.814560,486.439819 200.568588,495.960693 
	C200.871353,496.022369 201.130325,496.299072 201.704865,496.737671 
	C135.068863,497.000000 68.137718,497.000000 1.000000,497.000000 
	C1.000000,422.312561 1.000000,347.624939 1.000000,272.468658 
z"/>
<path fill="#000000" opacity="1.000000" stroke="none" 
	d="
M497.000000,201.531342 
	C494.195801,195.966766 493.572113,189.327682 491.774261,183.011337 
	C484.215851,156.456329 472.500153,131.921249 456.955414,109.130356 
	C447.191376,94.814796 436.215515,81.481712 423.546509,69.749237 
	C387.592651,36.453053 345.809113,14.328333 297.388733,5.214352 
	C289.421631,3.714736 281.355835,3.119961 273.193054,1.381202 
	C347.589752,1.000000 422.179474,1.000000 497.000000,1.000000 
	C497.000000,67.687386 497.000000,134.375031 497.000000,201.531342 
z"/>
<path fill="#000000" opacity="1.000000" stroke="none" 
	d="
M300.468658,497.000000 
	C307.173889,493.975311 314.924408,493.022980 322.327728,490.768433 
	C352.499390,481.580170 380.059906,467.456909 404.909943,448.040955 
	C414.200287,440.782196 423.301208,433.265411 431.302429,424.600525 
	C451.326721,402.915314 467.888611,378.948700 479.858856,351.788025 
	C487.054047,335.462067 492.026733,318.539032 496.636841,301.159393 
	C497.000000,366.260529 497.000000,431.521088 497.000000,497.000000 
	C431.645935,497.000000 366.291626,497.000000 300.468658,497.000000 
z"/>
<path fill="#000000" opacity="1.000000" stroke="none" 
	d="
M270.080566,176.877014 
	C294.234558,176.879227 317.900452,176.797791 341.565430,176.911819 
	C358.332306,176.992599 371.268433,186.687943 375.572754,201.918503 
	C376.689819,205.871140 376.210938,209.859848 376.335785,213.836166 
	C376.440338,217.166107 376.410095,220.502701 376.352600,223.834839 
	C376.216064,231.745483 378.130646,237.429367 385.857819,242.480545 
	C416.033844,262.206360 413.911194,306.636505 382.473328,324.336548 
	C378.639221,326.495209 377.246765,328.765656 376.979736,333.195770 
	C376.548126,340.355896 376.108398,347.524689 376.473724,354.650909 
	C377.305481,370.876434 362.201874,387.403625 343.091675,387.382477 
	C295.594086,387.329926 248.096390,387.375854 200.598740,387.378967 
	C187.099411,387.379852 173.599777,387.424927 160.100830,387.351013 
	C140.269653,387.242462 125.824478,372.723358 125.686020,352.829956 
	C125.639618,346.163879 125.450066,339.487671 125.745064,332.834656 
	C125.915428,328.992432 124.613235,326.936279 121.197136,325.024170 
	C91.275360,308.275513 86.277481,269.031799 111.021347,246.335419 
	C114.361092,243.272049 118.094711,240.753006 122.165924,238.802704 
	C124.755676,237.562103 125.775284,235.797623 125.712646,232.905991 
	C125.561104,225.909943 125.676468,218.907867 125.699341,211.908279 
	C125.765762,191.584824 140.262207,176.972992 160.728348,176.888046 
	C186.559921,176.780823 212.392334,176.880661 238.224396,176.882080 
	C244.848907,176.882446 244.874344,176.866745 244.887329,170.223434 
	C244.909805,158.724060 244.711365,147.220032 244.995590,135.727585 
	C245.101761,131.434921 243.680481,129.250717 239.743423,127.428535 
	C227.182510,121.615021 220.112717,108.503082 221.784790,95.183426 
	C223.418381,82.170280 232.857620,71.672256 245.629944,68.663612 
	C261.224487,64.990173 276.309204,73.028656 282.241638,88.173622 
	C287.897095,102.611595 281.940948,119.516296 267.742249,126.501450 
	C262.219910,129.218216 260.821960,132.346054 261.066040,137.996246 
	C261.504364,148.143433 261.180420,158.323212 261.188293,168.489380 
	C261.194794,176.869431 261.203308,176.869431 270.080566,176.877014 
M354.286987,197.150131 
	C351.009125,194.678955 347.407562,193.202576 343.216858,193.204483 
	C281.907562,193.232391 220.598236,193.201538 159.289032,193.284134 
	C150.285355,193.296265 143.631958,199.470917 142.042007,208.321121 
	C141.320709,212.336105 141.916016,216.298706 141.922729,220.278488 
	C141.996597,264.092072 142.132401,307.905579 142.277557,351.719025 
	C142.317841,363.873566 149.023529,370.796082 160.991028,370.806183 
	C221.467377,370.857086 281.943756,370.863770 342.420135,370.827393 
	C353.413208,370.820770 360.695923,363.685211 360.717499,352.772522 
	C360.810455,305.791107 360.766479,258.809448 360.847015,211.827972 
	C360.856750,206.146942 359.129700,201.387466 354.286987,197.150131 
M259.951324,112.593109 
	C261.158508,111.711555 262.479675,110.949753 263.553375,109.927917 
	C268.468018,105.250656 269.705139,97.869545 266.637695,92.087379 
	C263.701263,86.552086 256.490540,82.888557 250.748596,84.014633 
	C241.684113,85.792305 235.749283,94.628105 238.141205,102.784584 
	C240.990402,112.500374 249.605789,116.641403 259.951324,112.593109 
M125.665703,303.833008 
	C125.665703,288.255768 125.665703,272.678558 125.665703,256.785583 
	C116.923386,260.594666 110.963470,272.401093 111.356636,283.970978 
	C111.685432,293.646790 118.461655,305.183746 125.411148,307.580750 
	C125.498871,306.557831 125.581459,305.594757 125.665703,303.833008 
M391.123779,284.934479 
	C392.418243,273.751007 386.049591,260.393219 377.734253,257.121552 
	C375.347900,273.971924 377.333435,290.751251 377.348145,308.438904 
	C385.717682,302.297913 389.999023,295.011200 391.123779,284.934479 
z"/>
<path fill="#000000" opacity="1.000000" stroke="none" 
	d="
M169.660263,276.122284 
	C160.157990,255.541031 170.143677,235.022095 191.566498,230.433670 
	C208.680923,226.768051 225.615860,238.563766 228.958054,256.478088 
	C231.911728,272.309967 219.819183,289.362640 203.593826,292.246277 
	C189.698288,294.715820 177.731247,289.121796 169.660263,276.122284 
M200.782928,275.641754 
	C210.807739,272.150482 214.998505,263.907532 211.227737,255.097473 
	C208.005737,247.569641 198.633133,244.103516 191.094620,247.651978 
	C184.934937,250.551392 181.210419,257.974701 182.820557,264.142914 
	C184.974487,272.394226 190.505707,276.134125 200.782928,275.641754 
z"/>
<path fill="#000000" opacity="1.000000" stroke="none" 
	d="
M311.481628,292.697296 
	C292.945923,293.860931 277.451233,280.156403 277.129730,261.666199 
	C276.838928,244.940689 288.532990,231.365494 306.631622,229.787048 
	C323.637085,228.303925 338.566864,241.887924 340.265869,259.838959 
	C341.784180,275.880920 329.365814,290.231323 311.481628,292.697296 
M303.711182,275.142578 
	C316.886475,279.120453 326.514313,267.874481 323.076996,256.543243 
	C321.096069,250.012970 315.293457,246.061340 308.284454,246.256149 
	C301.710327,246.438843 295.896759,251.000610 294.423737,257.132416 
	C292.618195,264.648163 295.535095,270.678070 303.711182,275.142578 
z"/>
<path fill="#000000" opacity="1.000000" stroke="none" 
	d="
M249.999878,329.416931 
	C239.184341,329.410309 228.868530,329.446198 218.553391,329.379578 
	C212.728210,329.341980 209.813705,326.726959 209.638565,321.631256 
	C209.456741,316.341125 212.497864,312.930542 218.280579,312.897980 
	C241.572784,312.766693 264.866516,312.781738 288.158905,312.899017 
	C293.642120,312.926605 297.195160,316.714996 297.046417,321.621796 
	C296.904266,326.312042 293.464020,329.352692 287.935181,329.383636 
	C275.457062,329.453400 262.978363,329.412476 249.999878,329.416931 
z"/>
</svg>